<svg width="102" height="102" viewBox="0 0 102 102" fill="none" xmlns="http://www.w3.org/2000/svg">
<path fill-rule="evenodd" clip-rule="evenodd" d="M101 50.9998L100.999 51.2498L100.997 51.4998L100.992 51.7497L100.986 51.9997L100.979 52.2495L100.97 52.4993L100.958 52.7491L100.946 52.9987L100.931 53.2482L100.915 53.4977L100.898 53.7469L100.878 53.9961L100.857 54.2451L100.834 54.4939L100.81 54.7425L100.783 54.991L100.756 55.2392L100.726 55.4873L100.695 55.7351L100.662 55.9826L100.627 56.2299L100.591 56.4769L100.553 56.7237L100.514 56.9701L100.472 57.2163L100.43 57.4621L100.385 57.7076L100.339 57.9527L100.291 58.1975L100.241 58.4419L100.19 58.686L100.138 58.9296L100.083 59.1728L100.027 59.4156L99.9695 59.658L99.9102 59.9L99.8493 60.1415L99.7868 60.3825L99.7226 60.623L99.6569 60.8631L99.5896 61.1026L99.5207 61.3416L99.4501 61.5801L99.378 61.8181L99.3043 62.0555L99.2291 62.2923L99.1522 62.5286L99.0738 62.7643L98.9938 62.9994L98.9123 63.2338L98.8292 63.4677L98.7446 63.7009L98.6584 63.9335L98.5707 64.1654L98.4815 64.3966L98.3908 64.6272L98.2985 64.8571L98.2047 65.0863L98.1095 65.3148L98.0127 65.5425L97.9144 65.7696L97.8147 65.9958L97.7135 66.2214L97.6108 66.4461L97.5066 66.6701L97.401 66.8933L97.294 67.1157L97.1855 67.3373L97.0755 67.5581L96.9642 67.778L96.8514 67.9972L96.7372 68.2154L96.6216 68.4328L96.5047 68.6494L96.3863 68.8651L96.2665 69.0798L96.1454 69.2937L96.0229 69.5067L95.899 69.7188L95.7738 69.9299L95.6473 70.1401L95.5194 70.3493L95.3903 70.5577L95.2598 70.765L95.1279 70.9714L94.9948 71.1768L94.8604 71.3812L94.7248 71.5846L94.5878 71.787L94.4496 71.9883L94.3101 72.1887L94.1694 72.388L94.0275 72.5863L93.8843 72.7836L93.7399 72.9798L93.5943 73.1749L93.4476 73.3689L93.2996 73.5619L93.1504 73.7538L93.0001 73.9446L92.8486 74.1343L92.696 74.3228L92.5422 74.5103L92.3873 74.6966L92.2313 74.8818L92.0742 75.0659L91.916 75.2488L91.7566 75.4305L91.5963 75.6112L91.4348 75.7906L91.2723 75.9688L91.1087 76.1459L90.9441 76.3218L90.7784 76.4965L90.6118 76.67L90.4441 76.8423L90.2755 77.0134L90.1058 77.1833L89.9352 77.352L89.7636 77.5194L89.591 77.6856L89.4176 77.8506L89.2431 78.0143L89.0678 78.1768L88.8915 78.338L88.7144 78.4979L88.5363 78.6566L88.3574 78.814L88.1776 78.9702L87.997 79.1251L87.8155 79.2787L87.6331 79.431L87.45 79.582L87.266 79.7317L87.0812 79.8801L86.8957 80.0272L86.7093 80.1731L86.5222 80.3176L86.3343 80.4608L86.1457 80.6026L85.9564 80.7432L85.7663 80.8824L85.5755 81.0203L85.384 81.1569L85.1918 81.2921L84.9989 81.426L84.8054 81.5586L84.6112 81.6898L84.4164 81.8197L84.2209 81.9483L84.0248 82.0755L83.8281 82.2013L83.6308 82.3258L83.4329 82.4489L83.2344 82.5707L83.0353 82.6911L82.8357 82.8102L82.6356 82.9279L82.4349 83.0442L82.2337 83.1592L82.032 83.2728L81.8297 83.3851L81.627 83.4959L81.4238 83.6055L81.2202 83.7136L81.0161 83.8204L80.8115 83.9258L80.6065 84.0298L80.4011 84.1325L80.1953 84.2338L79.9891 84.3337L79.7825 84.4322L79.5755 84.5294L79.3681 84.6252L79.1604 84.7197L78.9523 84.8127L78.7439 84.9044L78.5352 84.9948L78.3262 85.0837L78.1169 85.1713L77.9072 85.2576L77.6973 85.3424L77.4871 85.4259L77.2767 85.508L77.066 85.5888L76.8551 85.6682L76.644 85.7463L76.4326 85.823L76.221 85.8983L76.0092 85.9723L75.7973 86.0449L75.5852 86.1162L75.3729 86.1861L75.1604 86.2547L74.9478 86.322L74.7351 86.3879L74.5223 86.4524L74.3093 86.5157L74.0962 86.5775L73.8831 86.6381L73.6698 86.6973L73.4565 86.7552L73.2431 86.8118L73.0297 86.8671L72.8162 86.921L72.6027 86.9736L72.3892 87.0249L72.1757 87.075L71.9621 87.1237L71.7486 87.1711L71.535 87.2172L71.3215 87.262L71.108 87.3055L70.8946 87.3478L70.6812 87.3887L70.4679 87.4284L70.2546 87.4668L70.0414 87.504L69.8283 87.5398L69.6153 87.5744L69.4024 87.6078L69.1896 87.6399L68.977 87.6708L68.7645 87.7004L68.5521 87.7288L68.3398 87.7559L68.1277 87.7818L67.9158 87.8065L67.7041 87.83L67.4925 87.8522L67.2811 87.8733L67.0699 87.8931L66.859 87.9118L66.6482 87.9292L66.4376 87.9455L66.2273 87.9606L66.0173 87.9745L65.8074 87.9872L65.5978 87.9988L65.3885 88.0092L65.1794 88.0185L64.9707 88.0266L64.7621 88.0335L64.5539 88.0394L64.346 88.0441L64.1384 88.0476L63.9311 88.0501L63.7241 88.0514L63.5174 88.0517L63.3111 88.0508L63.105 88.0488L62.8994 88.0458L62.6941 88.0416L62.4891 88.0364L62.2845 88.0301L62.0802 88.0228L61.8764 88.0144L61.6729 88.0049L61.4698 87.9944L61.2671 87.9829L61.0648 87.9703L60.8629 87.9567L60.6613 87.9421L60.4603 87.9265L60.2596 87.9099L60.0593 87.8922L59.8595 87.8736L59.6601 87.854L59.4612 87.8334L59.2627 87.8119L59.0646 87.7894L58.867 87.7659L58.6699 87.7415L58.4732 87.7161L58.277 87.6898L58.0813 87.6626L57.886 87.6344L57.6912 87.6054L57.4969 87.5754L57.3031 87.5445L57.1098 87.5127L56.917 87.4801L56.7247 87.4465L56.5328 87.4121L56.3415 87.3768L56.1507 87.3407L55.9605 87.3037L55.7707 87.2659L55.5815 87.2272L55.3927 87.1877L55.2046 87.1474L55.0169 87.1062L54.8298 87.0643L54.6432 87.0215L54.4572 86.978L54.2717 86.9336L54.0867 86.8885L53.9023 86.8426L53.7184 86.796L53.5351 86.7486L53.3524 86.7004L53.1702 86.6515L52.9885 86.6018L52.8074 86.5515L52.6269 86.5003L52.447 86.4485L52.2676 86.396L52.0888 86.3428L51.9105 86.2888L51.7328 86.2342L51.5557 86.1789L51.3792 86.1229L51.2033 86.0663L51.0279 86.009L50.8531 85.951L50.6788 85.8924L50.5052 85.8332L50.3321 85.7733L50.1597 85.7128L49.9877 85.6517L49.8164 85.59L49.6457 85.5276L49.4755 85.4647L49.306 85.4011L49.137 85.337L48.9686 85.2723L48.8007 85.207L48.6335 85.1412L48.4669 85.0748L48.3008 85.0078L48.1353 84.9403L47.9704 84.8723L47.8061 84.8037L47.6424 84.7346L47.4792 84.665L47.3166 84.5949L47.1547 84.5242L46.9932 84.4531L46.8324 84.3814L46.6722 84.3093L46.5125 84.2367L46.3534 84.1636L46.1949 84.09L46.037 84.016L45.8796 83.9415L45.7228 83.8665L45.5666 83.7911L45.411 83.7153L45.2559 83.639L45.1014 83.5623L44.9475 83.4851L44.7941 83.4076L44.6413 83.3296L44.489 83.2512L44.3374 83.1724L44.1862 83.0933L44.0357 83.0137L43.8857 82.9337L43.7362 82.8533L43.5873 82.7726L43.4389 82.6915L43.2911 82.61L43.1439 82.5282L42.9971 82.446L42.8509 82.3635L42.7053 82.2806L42.5602 82.1973L42.4156 82.1138L42.2716 82.0299L42.1281 81.9456L41.9851 81.8611L41.8426 81.7762L41.7007 81.691L41.5593 81.6055L41.4184 81.5196L41.278 81.4335L41.1381 81.3471L40.9987 81.2604L40.8598 81.1734L40.7215 81.0861L40.5836 80.9985L40.4462 80.9106L40.3094 80.8225L40.173 80.7341L40.0371 80.6454L39.9017 80.5564L39.7667 80.4672L39.6323 80.3777L39.4983 80.288L39.3648 80.198L39.2318 80.1078L39.0992 80.0173L38.9671 79.9266L38.8354 79.8357L38.7043 79.7445L38.5735 79.6531L38.4432 79.5614L38.3134 79.4695L38.184 79.3774L38.055 79.2851L37.9265 79.1925L37.7984 79.0998L37.6708 79.0068L37.5435 78.9136L37.4167 78.8201L37.2903 78.7265L37.1643 78.6327L37.0388 78.5387L36.9136 78.4444L36.7889 78.35L36.6645 78.2553L36.5406 78.1605L36.417 78.0655L36.2939 77.9702L36.1711 77.8748L36.0487 77.7792L35.9267 77.6834L35.8051 77.5874L35.6838 77.4912L35.5629 77.3948L35.4424 77.2983L35.3223 77.2015L35.2025 77.1046L35.083 77.0075L34.9639 76.9102L34.8452 76.8127L34.7268 76.7151L34.6088 76.6173L34.4911 76.5193L34.3737 76.4211L34.2567 76.3227L34.14 76.2242L34.0236 76.1254L33.9075 76.0265L33.7918 75.9275L33.6764 75.8282L33.5613 75.7288L33.4465 75.6292L33.332 75.5294L33.2178 75.4294L33.1039 75.3293L32.9903 75.2289L32.877 75.1284L32.764 75.0277L32.6513 74.9269L32.5389 74.8258L32.4267 74.7246L32.3148 74.6232L32.2033 74.5216L32.0919 74.4199L31.9809 74.3179L31.8701 74.2158L31.7596 74.1135L31.6493 74.0109L31.5393 73.9082L31.4295 73.8054L31.32 73.7023L31.2108 73.599L31.1018 73.4955L30.993 73.3919L30.8845 73.288L30.7762 73.184L30.6682 73.0797L30.5604 72.9753L30.4528 72.8706L30.3455 72.7658L30.2384 72.6607L30.1315 72.5554L30.0248 72.4499L29.9184 72.3443L29.8121 72.2383L29.7061 72.1322L29.6003 72.0259L29.4948 71.9193L29.3894 71.8125L29.2842 71.7055L29.1793 71.5983L29.0745 71.4908L28.97 71.3831L28.8656 71.2752L28.7615 71.1671L28.6575 71.0587L28.5538 70.95L28.4502 70.8411L28.3468 70.732L28.2437 70.6226L28.1407 70.513L28.0379 70.4031L27.9353 70.293L27.8329 70.1826L27.7307 70.0719L27.6286 69.961L27.5268 69.8498L27.4251 69.7383L27.3236 69.6266L27.2223 69.5145L27.1212 69.4023L27.0202 69.2897L26.9195 69.1768L26.8189 69.0636L26.7185 68.9502L26.6182 68.8365L26.5182 68.7224L26.4183 68.6081L26.3186 68.4934L26.2191 68.3785L26.1198 68.2632L26.0206 68.1476L25.9216 68.0317L25.8228 67.9155L25.7242 67.7989L25.6257 67.6821L25.5274 67.5648L25.4293 67.4473L25.3314 67.3294L25.2337 67.2112L25.1361 67.0926L25.0388 66.9737L24.9416 66.8545L24.8446 66.7348L24.7477 66.6149L24.6511 66.4945L24.5546 66.3738L24.4584 66.2527L24.3623 66.1313L24.2664 66.0094L24.1707 65.8872L24.0751 65.7646L23.9798 65.6417L23.8847 65.5183L23.7898 65.3945L23.695 65.2704L23.6005 65.1458L23.5062 65.0209L23.412 64.8955L23.3181 64.7697L23.2244 64.6435L23.1309 64.5169L23.0375 64.3899L22.9445 64.2624L22.8516 64.1346L22.7589 64.0062L22.6665 63.8775L22.5743 63.7483L22.4823 63.6187L22.3905 63.4886L22.299 63.3581L22.2077 63.2271L22.1166 63.0957L22.0258 62.9638L21.9352 62.8314L21.8448 62.6986L21.7547 62.5653L21.6649 62.4316L21.5753 62.2974L21.486 62.1627L21.3969 62.0275L21.3081 61.8918L21.2195 61.7557L21.1313 61.619L21.0433 61.4819L20.9556 61.3443L20.8681 61.2061L20.781 61.0675L20.6941 60.9284L20.6075 60.7887L20.5213 60.6486L20.4353 60.5079L20.3496 60.3668L20.2643 60.2251L20.1793 60.0829L20.0945 59.9401L20.0101 59.7969L19.9261 59.6531L19.8423 59.5088L19.7589 59.3639L19.6759 59.2185L19.5932 59.0726L19.5108 58.9261L19.4288 58.7791L19.3472 58.6316L19.2659 58.4835L19.185 58.3348L19.1044 58.1856L19.0243 58.0359L18.9445 57.8856L18.8652 57.7347L18.7862 57.5833L18.7076 57.4313L18.6294 57.2788L18.5517 57.1257L18.4743 56.972L18.3974 56.8178L18.3209 56.663L18.2449 56.5076L18.1693 56.3517L18.0941 56.1952L18.0194 56.0381L17.9451 55.8804L17.8713 55.7222L17.798 55.5634L17.7251 55.404L17.6528 55.244L17.5809 55.0835L17.5095 54.9223L17.4386 54.7606L17.3682 54.5983L17.2984 54.4355L17.229 54.272L17.1602 54.108L17.0919 53.9434L17.0241 53.7782L16.9569 53.6124L16.8903 53.446L16.8242 53.279L16.7586 53.1115L16.6936 52.9434L16.6292 52.7747L16.5654 52.6054L16.5022 52.4355L16.4396 52.265L16.3775 52.094L16.3161 51.9224L16.2553 51.7502L16.1951 51.5774L16.1356 51.404L16.0767 51.23L16.0184 51.0555L15.9608 50.8804L15.9038 50.7047L15.8476 50.5285L15.7919 50.3516L15.737 50.1742L15.6827 49.9963L15.6292 49.8177L15.5763 49.6386L15.5241 49.4589L15.4727 49.2787L15.422 49.0979L15.372 48.9165L15.3227 48.7346L15.2742 48.5521L15.2264 48.369L15.1794 48.1854L15.1331 48.0013L15.0876 47.8166L15.0429 47.6313L14.999 47.4456L14.9559 47.2592L14.9135 47.0724L14.872 46.885L14.8313 46.697L14.7914 46.5086L14.7523 46.3196L14.7141 46.1301L14.6767 45.94L14.6401 45.7495L14.6044 45.5584L14.5696 45.3669L14.5357 45.1748L14.5026 44.9822L14.4704 44.7891L14.4391 44.5956L14.4087 44.4015L14.3792 44.2069L14.3506 44.0119L14.3229 43.8164L14.2962 43.6204L14.2703 43.424L14.2455 43.227L14.2215 43.0297L14.1986 42.8318L14.1766 42.6335L14.1555 42.4348L14.1354 42.2356L14.1164 42.036L14.0982 41.836L14.0811 41.6355L14.065 41.4346L14.0499 41.2333L14.0359 41.0316L14.0228 40.8294L14.0108 40.6269L13.9998 40.424L13.9898 40.2207L13.9809 40.017L13.9731 39.813L13.9663 39.6085L13.9605 39.4037L13.9559 39.1986L13.9523 38.9931L13.9498 38.7872L13.9484 38.581L13.9481 38.3745L13.9489 38.1677L13.9509 37.9605L13.9539 37.753L13.958 37.5453L13.9633 37.3372L13.9698 37.1288L13.9773 36.9202L13.986 36.7112L13.9959 36.502L14.0069 36.2926L14.0191 36.0828L14.0324 35.8729L14.0469 35.6627L14.0626 35.4522L14.0795 35.2416L14.0976 35.0307L14.1169 34.8196L14.1374 34.6083L14.159 34.3969L14.1819 34.1852L14.206 33.9734L14.2314 33.7613L14.2579 33.5492L14.2857 33.3368L14.3147 33.1244L14.345 32.9118L14.3765 32.6991L14.4093 32.4862L14.4433 32.2733L14.4786 32.0602L14.5151 31.8471L14.5529 31.6339L14.592 31.4206L14.6323 31.2072L14.6739 30.9938L14.7169 30.7803L14.7611 30.5668L14.8065 30.3533L14.8533 30.1397L14.9014 29.9262L14.9508 29.7126L15.0015 29.4991L15.0535 29.2856L15.1068 29.0721L15.1614 28.8586L15.2174 28.6452L15.2746 28.4319L15.3332 28.2186L15.3932 28.0054L15.4544 27.7923L15.517 27.5793L15.5809 27.3664L15.6462 27.1536L15.7128 26.9409L15.7807 26.7284L15.85 26.5161L15.9206 26.3038L15.9926 26.0918L16.066 25.8799L16.1407 25.6683L16.2167 25.4568L16.2941 25.2456L16.3729 25.0345L16.453 24.8237L16.5345 24.6132L16.6173 24.4029L16.7015 24.1928L16.7871 23.9831L16.874 23.7736L16.9624 23.5644L17.052 23.3556L17.1431 23.147L17.2355 22.9388L17.3293 22.7309L17.4244 22.5234L17.521 22.3162L17.6189 22.1094L17.7181 21.903L17.8188 21.697L17.9208 21.4914L18.0242 21.2862L18.1289 21.0814L18.235 20.8771L18.3425 20.6732L18.4514 20.4698L18.5616 20.2669L18.6732 20.0644L18.7861 19.8624L18.9005 19.661L19.0162 19.4601L19.1332 19.2596L19.2516 19.0598L19.3714 18.8605L19.4925 18.6617L19.615 18.4635L19.7389 18.2659L19.8641 18.0689L19.9906 17.8725L20.1185 17.6768L20.2477 17.4816L20.3783 17.2871L20.5103 17.0933L20.6435 16.9001L20.7781 16.7076L20.9141 16.5157L21.0513 16.3246L21.1899 16.1342L21.3299 15.9445L21.4711 15.7555L21.6137 15.5673L21.7575 15.3798L21.9027 15.1931L22.0492 15.0071L22.197 14.822L22.3461 14.6376L22.4965 14.4541L22.6482 14.2714L22.8012 14.0895L22.9555 13.9084L23.111 13.7282L23.2678 13.5489L23.4259 13.3704L23.5853 13.1928L23.7459 13.0161L23.9077 12.8403L24.0709 12.6655L24.2352 12.4915L24.4008 12.3185L24.5677 12.1465L24.7357 11.9754L24.905 11.8053L25.0756 11.6362L25.2473 11.468L25.4202 11.3009L25.5944 11.1347L25.7697 10.9696L25.9462 10.8056L26.1239 10.6425L26.3028 10.4806L26.4828 10.3197L26.664 10.1598L26.8464 10.0011L27.0299 9.84342L27.2146 9.68687L27.4004 9.53144L27.5873 9.37713L27.7753 9.22396L27.9645 9.07193L28.1547 8.92105L28.3461 8.77134L28.5385 8.6228L28.7321 8.47545L28.9267 8.32928L29.1224 8.18432L29.3191 8.04058L29.5169 7.89805L29.7157 7.75675L29.9156 7.61669L30.1165 7.47788L30.3184 7.34033L30.5213 7.20404L30.7253 7.06903L30.9302 6.93531L31.1361 6.80287L31.343 6.67174L31.5508 6.54192L31.7596 6.41342L31.9694 6.28624L32.1801 6.16041L32.3917 6.03591L32.6042 5.91277L32.8177 5.79099L33.032 5.67058L33.2473 5.55154L33.4634 5.43389L33.6804 5.31763L33.8983 5.20277L34.117 5.08932L34.3365 4.97729L34.5569 4.86667L34.7781 4.75749L35.0001 4.64975L35.2229 4.54345L35.4466 4.4386L35.671 4.33522L35.8961 4.23329L36.122 4.13285L36.3487 4.03388L36.5761 3.9364L36.8042 3.84041L37.0331 3.74592L37.2627 3.65293L37.4929 3.56146L37.7238 3.47151L37.9554 3.38308L38.1877 3.29619L38.4206 3.21082L38.6542 3.12701L38.8883 3.04474L39.1231 2.96402L39.3585 2.88486L39.5945 2.80727L39.8311 2.73125L40.0682 2.6568L40.3059 2.58393L40.5442 2.51265L40.7829 2.44296L41.0222 2.37486L41.262 2.30836L41.5023 2.24347L41.7431 2.18018L41.9844 2.11851L42.2261 2.05845L42.4683 2.00002L42.7109 1.94321L42.9539 1.88803L43.1974 1.83448L43.4412 1.78257L43.6855 1.7323L43.9301 1.68368L44.1751 1.6367L44.4204 1.59137L44.666 1.54769L44.912 1.50567L45.1583 1.46531L45.4049 1.42662L45.6518 1.38959L45.899 1.35422L46.1464 1.32052L46.3941 1.2885L46.642 1.25815L46.8902 1.22948L47.1385 1.20249L47.3871 1.17717L47.6358 1.15354L47.8847 1.1316L48.1338 1.11133L48.383 1.09276L48.6324 1.07587L48.8819 1.06067L49.1315 1.04717L49.3811 1.03535L49.6309 1.02522L49.8807 1.01679L50.1306 1.01005L50.3806 1.00501L50.6306 1.00166L50.8806 1L51.1306 1.00004L51.3805 1.00177L51.6305 1.0052L51.8805 1.01032L52.1304 1.01713L52.3802 1.02564L52.63 1.03584L52.8796 1.04773L53.1292 1.06131L53.3787 1.07659L53.628 1.09355L53.8773 1.1122L54.1263 1.13254L54.3752 1.15456L54.624 1.17826L54.8725 1.20365L55.1209 1.23072L55.369 1.25947L55.6169 1.28989L55.8646 1.32199L56.112 1.35576L56.3591 1.39119L56.606 1.4283L56.8526 1.46707L57.0989 1.5075L57.3449 1.5496L57.5905 1.59335L57.8358 1.63875L58.0808 1.6858L58.3254 1.7345L58.5696 1.78484L58.8134 1.83683L59.0569 1.89044L59.2999 1.9457L59.5425 2.00258L59.7846 2.06108L60.0263 2.12121L60.2676 2.18296L60.5083 2.24631L60.7486 2.31128L60.9884 2.37785L61.2277 2.44602L61.4664 2.51578L61.7046 2.58713L61.9423 2.66007L62.1794 2.73459L62.416 2.81068L62.6519 2.88834L62.8873 2.96757L63.1221 3.04836L63.3562 3.1307L63.5897 3.21458L63.8226 3.30001L64.0549 3.38698L64.2864 3.47547L64.5173 3.56549L64.7476 3.65703L64.9771 3.75008L65.2059 3.84464L65.434 3.94069L65.6614 4.03824L65.888 4.13728L66.1139 4.23779L66.339 4.33978L66.5634 4.44323L66.787 4.54814L67.0097 4.6545L67.2317 4.76231L67.4529 4.87156L67.6732 4.98223L67.8928 5.09433L68.1114 5.20784L68.3293 5.32276L68.5462 5.43908L68.7623 5.5568L68.9775 5.67589L69.1918 5.79637L69.4052 5.91821L69.6177 6.04141L69.8293 6.16597L70.04 6.29186L70.2497 6.4191L70.4584 6.54766L70.6662 6.67754L70.8731 6.80873L71.0789 6.94122L71.2838 7.075L71.4877 7.21007L71.6906 7.34641L71.8924 7.48402L72.0933 7.62288L72.2931 7.763L72.4919 7.90435L72.6897 8.04693L72.8864 8.19074L73.082 8.33575L73.2765 8.48196L73.47 8.62937L73.6624 8.77796L73.8537 8.92773L74.044 9.07865L74.2331 9.23073L74.4211 9.38396L74.6079 9.53832L74.7937 9.6938L74.9783 9.8504L75.1617 10.0081L75.344 10.1669L75.5252 10.3268L75.7052 10.4877L75.884 10.6498L76.0617 10.8128L76.2381 10.9769L76.4134 11.1421L76.5875 11.3083L76.7604 11.4755L76.932 11.6436L77.1025 11.8128L77.2717 11.983L77.4398 12.1541L77.6065 12.3262L77.7721 12.4992L77.9364 12.6732L78.0995 12.8481L78.2613 13.0239L78.4218 13.2007L78.5811 13.3783L78.7392 13.5568L78.8959 13.7362L79.0514 13.9164L79.2056 14.0975L79.3585 14.2795L79.5102 14.4622L79.6605 14.6458L79.8096 14.8302L79.9573 15.0154L80.1037 15.2014L80.2489 15.3881L80.3927 15.5756L80.5352 15.7639L80.6764 15.9529L80.8162 16.1426L80.9548 16.3331L81.092 16.5242L81.2279 16.7161L81.3624 16.9086L81.4956 17.1019L81.6275 17.2957L81.758 17.4903L81.8872 17.6854L82.015 17.8812L82.1415 18.0777L82.2667 18.2747L82.3904 18.4723L82.5129 18.6705L82.6339 18.8693L82.7537 19.0686L82.872 19.2685L82.989 19.469L83.1046 19.6699L83.2189 19.8714L83.3318 20.0734L83.4433 20.2759L83.5535 20.4788L83.6623 20.6823L83.7697 20.8862L83.8758 21.0905L83.9805 21.2953L84.0838 21.5005L84.1857 21.7061L84.2863 21.9122L84.3855 22.1186L84.4834 22.3254L84.5798 22.5326L84.6749 22.7401L84.7686 22.948L84.861 23.1563L84.952 23.3648L85.0416 23.5737L85.1298 23.7829L85.2167 23.9924L85.3022 24.2022L85.3864 24.4122L85.4692 24.6225L85.5506 24.8331L85.6307 25.0439L85.7094 25.2549L85.7867 25.4662L85.8627 25.6777L85.9373 25.8894L86.0106 26.1012L86.0825 26.3133L86.1531 26.5255L86.2223 26.7379L86.2902 26.9504L86.3568 27.163L86.4219 27.3758L86.4858 27.5887L86.5483 27.8018L86.6095 28.0149L86.6694 28.2281L86.7279 28.4413L86.7851 28.6547L86.841 28.8681L86.8956 29.0816L86.9488 29.2951L87.0008 29.5086L87.0514 29.7221L87.1007 29.9357L87.1488 30.1492L87.1955 30.3628L87.2409 30.5763L87.2851 30.7898L87.3279 31.0033L87.3695 31.2167L87.4098 31.43L87.4488 31.6433L87.4866 31.8565L87.523 32.0697L87.5582 32.2827L87.5922 32.4957L87.6249 32.7085L87.6564 32.9212L87.6866 33.1338L87.7155 33.3463L87.7433 33.5586L87.7698 33.7708L87.795 33.9828L87.8191 34.1946L87.8419 34.4062L87.8636 34.6177L87.884 34.829L87.9032 35.0401L87.9212 35.2509L87.9381 35.4616L87.9537 35.672L87.9682 35.8822L87.9815 36.0922L87.9936 36.3019L88.0046 36.5113L88.0144 36.7205L88.023 36.9294L88.0306 37.1381L88.0369 37.3464L88.0422 37.5545L88.0463 37.7623L88.0493 37.9697L88.0511 38.1769L88.0519 38.3837L88.0515 38.5902L88.0501 38.7964L88.0476 39.0022L88.0439 39.2077L88.0392 39.4128L88.0335 39.6176L88.0266 39.822L88.0187 40.0261L88.0098 40.2297L87.9998 40.433L87.9887 40.6359L87.9766 40.8384L87.9635 41.0405L87.9494 41.2422L87.9343 41.4435L87.9181 41.6444L87.901 41.8448L87.8828 42.0449L87.8637 42.2445L87.8436 42.4436L87.8225 42.6423L87.8004 42.8406L87.7774 43.0384L87.7534 43.2358L87.7285 43.4327L87.7027 43.6291L87.6759 43.8251L87.6482 44.0206L87.6195 44.2156L87.59 44.4101L87.5596 44.6042L87.5282 44.7977L87.496 44.9908L87.4629 45.1833L87.4289 45.3754L87.394 45.5669L87.3583 45.758L87.3217 45.9485L87.2842 46.1385L87.246 46.328L87.2069 46.517L87.1669 46.7054L87.1262 46.8933L87.0846 47.0807L87.0422 47.2675L86.9991 47.4538L86.9551 47.6396L86.9104 47.8248L86.8648 48.0095L86.8186 48.1936L86.7715 48.3772L86.7237 48.5602L86.6751 48.7427L86.6258 48.9246L86.5758 49.1059L86.525 49.2867L86.4736 49.4669L86.4214 49.6466L86.3685 49.8257L86.3149 50.0042L86.2606 50.1821L86.2056 50.3595L86.15 50.5363L86.0936 50.7125L86.0366 50.8882L85.979 51.0633L85.9207 51.2378L85.8618 51.4117L85.8022 51.585L85.742 51.7578L85.6812 51.93L85.6197 52.1016L85.5577 52.2726L85.495 52.443L85.4318 52.6129L85.3679 52.7822L85.3035 52.9508L85.2385 53.1189L85.1729 53.2865L85.1068 53.4534L85.0401 53.6197L84.9729 53.7855L84.9051 53.9507L84.8368 54.1153L84.7679 54.2793L84.6985 54.4427L84.6286 54.6056L84.5582 54.7678L84.4873 54.9295L84.4159 55.0906L84.344 55.2511L84.2716 55.4111L84.1988 55.5704L84.1254 55.7292L84.0516 55.8874L83.9773 56.0451L83.9026 56.2021L83.8274 56.3586L83.7518 56.5145L83.6757 56.6699L83.5992 56.8246L83.5222 56.9789L83.4449 57.1325L83.3671 57.2856L83.2889 57.4381L83.2103 57.59L83.1313 57.7414L83.0519 57.8923L82.9722 58.0425L82.892 58.1923L82.8114 58.3414L82.7305 58.4901L82.6492 58.6381L82.5676 58.7857L82.4855 58.9326L82.4032 59.0791L82.3204 59.225L82.2374 59.3703L82.1539 59.5152L82.0702 59.6595L81.9861 59.8032L81.9017 59.9465L81.817 60.0892L81.7319 60.2314L81.6466 60.373L81.5609 60.5142L81.4749 60.6548L81.3886 60.795L81.302 60.9346L81.2152 61.0737L81.128 61.2123L81.0405 61.3504L80.9528 61.488L80.8648 61.6251L80.7765 61.7617L80.688 61.8979L80.5991 62.0335L80.5101 62.1687L80.4207 62.3033L80.3311 62.4375L80.2413 62.5713L80.1512 62.7045L80.0608 62.8373L79.9702 62.9697L79.8794 63.1015L79.7883 63.2329L79.697 63.3639L79.6054 63.4944L79.5136 63.6244L79.4216 63.754L79.3294 63.8832L79.237 64.0119L79.1443 64.1402L79.0514 64.2681L78.9583 64.3955L78.865 64.5226L78.7715 64.6491L78.6777 64.7753L78.5838 64.9011L78.4897 65.0264L78.3953 65.1514L78.3008 65.2759L78.206 65.4L78.1111 65.5238L78.0159 65.6471L77.9206 65.7701L77.8251 65.8927L77.7294 66.0149L77.6335 66.1367L77.5374 66.2581L77.4411 66.3792L77.3446 66.4999L77.248 66.6202L77.1511 66.7402L77.0541 66.8598L76.9569 66.979L76.8595 67.0979L76.762 67.2165L76.6642 67.3347L76.5663 67.4525L76.4682 67.5701L76.3699 67.6873L76.2715 67.8041L76.1728 67.9206L76.074 68.0369L75.975 68.1527L75.8758 68.2683L75.7765 68.3836L75.677 68.4985L75.5773 68.6132L75.4774 68.7275L75.3773 68.8415L75.2771 68.9552L75.1767 69.0687L75.0761 69.1818L74.9753 69.2947L74.8743 69.4072L74.7732 69.5195L74.6719 69.6315L74.5704 69.7433L74.4687 69.8547L74.3668 69.9659L74.2648 70.0768L74.1626 70.1875L74.0601 70.2979L73.9575 70.408L73.8547 70.5179L73.7517 70.6275L73.6486 70.7369L73.5452 70.846L73.4416 70.9548L73.3379 71.0635L73.2339 71.1719L73.1298 71.28L73.0254 71.3879L72.9208 71.4956L72.8161 71.6031L72.7111 71.7103L72.6059 71.8173L72.5006 71.9241L72.395 72.0306L72.2892 72.1369L72.1831 72.243L72.0769 72.3489L71.9705 72.4546L71.8638 72.5601L71.7569 72.6654L71.6498 72.7704L71.5424 72.8753L71.4348 72.9799L71.327 73.0844L71.219 73.1886L71.1107 73.2926L71.0022 73.3965L70.8934 73.5001L70.7844 73.6036L70.6751 73.7069L70.5656 73.8099L70.4558 73.9128L70.3458 74.0155L70.2355 74.118L70.125 74.2203L70.0142 74.3224L69.9031 74.4244L69.7918 74.5262L69.6802 74.6277L69.5683 74.7291L69.4561 74.8303L69.3437 74.9314L69.231 75.0322L69.1179 75.1329L69.0046 75.2334L68.891 75.3337L68.7771 75.4338L68.6629 75.5338L68.5484 75.6336L68.4336 75.7332L68.3185 75.8326L68.2031 75.9319L68.0873 76.0309L67.9712 76.1298L67.8549 76.2285L67.7381 76.3271L67.6211 76.4254L67.5037 76.5236L67.386 76.6216L67.2679 76.7194L67.1495 76.8171L67.0308 76.9145L66.9117 77.0118L66.7922 77.1089L66.6724 77.2058L66.5522 77.3026L66.4317 77.3991L66.3108 77.4955L66.1895 77.5917L66.0679 77.6876L65.9459 77.7834L65.8235 77.879L65.7007 77.9745L65.5775 78.0697L65.4539 78.1647L65.33 78.2595L65.2056 78.3542L65.0808 78.4486L64.9557 78.5428L64.8301 78.6369L64.7041 78.7307L64.5777 78.8243L64.4508 78.9177L64.3236 79.0109L64.1959 79.1039L64.0678 79.1966L63.9393 79.2892L63.8103 79.3815L63.6809 79.4736L63.551 79.5655L63.4207 79.6571L63.2899 79.7485L63.1587 79.8397L63.027 79.9307L62.8949 80.0214L62.7623 80.1118L62.6293 80.202L62.4958 80.292L62.3618 80.3817L62.2273 80.4712L62.0923 80.5604L61.9569 80.6493L61.821 80.738L61.6846 80.8264L61.5477 80.9145L61.4103 81.0024L61.2724 81.0899L61.134 81.1772L60.9951 81.2642L60.8557 81.3509L60.7158 81.4373L60.5754 81.5235L60.4345 81.6093L60.293 81.6948L60.1511 81.78L60.0086 81.8648L59.8656 81.9494L59.722 82.0336L59.578 82.1175L59.4334 82.2011L59.2882 82.2843L59.1426 82.3671L58.9964 82.4497L58.8496 82.5319L58.7023 82.6137L58.5545 82.6951L58.4061 82.7762L58.2572 82.8569L58.1077 82.9373L57.9577 83.0172L57.8071 83.0968L57.6559 83.1759L57.5042 83.2547L57.3519 83.3331L57.1991 83.411L57.0457 83.4886L56.8917 83.5657L56.7372 83.6424L56.5821 83.7187L56.4264 83.7945L56.2702 83.8699L56.1134 83.9448L55.956 84.0193L55.7981 84.0933L55.6395 84.1668L55.4804 84.2399L55.3207 84.3125L55.1604 84.3846L54.9996 84.4562L54.8382 84.5274L54.6762 84.598L54.5136 84.6681L54.3504 84.7377L54.1866 84.8068L54.0223 84.8753L53.8574 84.9434L53.6918 85.0108L53.5257 85.0778L53.3591 85.1441L53.1918 85.2099L53.024 85.2752L52.8555 85.3399L52.6865 85.404L52.5169 85.4675L52.3467 85.5304L52.176 85.5927L52.0046 85.6544L51.8327 85.7155L51.6602 85.776L51.4871 85.8358L51.3134 85.8951L51.1392 85.9536L50.9643 86.0116L50.7889 86.0688L50.613 86.1254L50.4364 86.1814L50.2593 86.2367L50.0816 86.2912L49.9033 86.3451L49.7244 86.3983L49.545 86.4508L49.3651 86.5026L49.1845 86.5537L49.0034 86.604L48.8218 86.6537L48.6395 86.7026L48.4568 86.7507L48.2734 86.7981L48.0895 86.8447L47.9051 86.8905L47.7201 86.9356L47.5346 86.9799L47.3485 87.0234L47.1619 87.0662L46.9748 87.1081L46.7871 87.1492L46.5989 87.1895L46.4101 87.2289L46.2209 87.2676L46.0311 87.3054L45.8408 87.3423L45.65 87.3784L45.4586 87.4137L45.2668 87.448L45.0745 87.4815L44.8816 87.5142L44.6883 87.5459L44.4945 87.5767L44.3001 87.6067L44.1053 87.6357L43.9101 87.6638L43.7143 87.691L43.5181 87.7172L43.3214 87.7426L43.1242 87.767L42.9266 87.7904L42.7285 87.8129L42.53 87.8344L42.331 87.8549L42.1316 87.8745L41.9318 87.893L41.7315 87.9106L41.5308 87.9272L41.3297 87.9428L41.1282 87.9573L40.9263 87.9709L40.7239 87.9834L40.5212 87.9949L40.3181 88.0054L40.1146 88.0148L39.9107 88.0231L39.7064 88.0304L39.5018 88.0367L39.2968 88.0418L39.0915 88.0459L38.8858 88.0489L38.6798 88.0508L38.4734 88.0517L38.2667 88.0514L38.0597 88.05L37.8524 88.0475L37.6448 88.0439L37.4368 88.0391L37.2286 88.0333L37.0201 88.0262L36.8113 88.0181L36.6022 88.0088L36.3929 87.9983L36.1833 87.9867L35.9734 87.9739L35.7633 87.9599L35.553 87.9448L35.3425 87.9285L35.1317 87.911L34.9207 87.8923L34.7095 87.8724L34.4981 87.8513L34.2865 87.829L34.0748 87.8054L33.8629 87.7807L33.6508 87.7547L33.4385 87.7275L33.2261 87.6991L33.0136 87.6694L32.8009 87.6385L32.5881 87.6063L32.3752 87.5729L32.1622 87.5383L31.9491 87.5023L31.7359 87.4651L31.5227 87.4267L31.3093 87.3869L31.0959 87.3459L30.8825 87.3036L30.669 87.26L30.4555 87.2152L30.242 87.169L30.0284 87.1215L29.8149 87.0728L29.6013 87.0227L29.3878 86.9713L29.1743 86.9186L28.9608 86.8646L28.7474 86.8093L28.534 86.7527L28.3207 86.6947L28.1074 86.6354L27.8943 86.5748L27.6812 86.5129L27.4683 86.4496L27.2554 86.385L27.0427 86.319L26.8301 86.2517L26.6177 86.1831L26.4054 86.1131L26.1933 86.0417L25.9813 85.969L25.7696 85.895L25.558 85.8196L25.3467 85.7429L25.1355 85.6647L24.9246 85.5853L24.7139 85.5044L24.5035 85.4222L24.2934 85.3387L24.0835 85.2538L23.8738 85.1675L23.6645 85.0798L23.4555 84.9908L23.2468 84.9004L23.0384 84.8086L22.8304 84.7155L22.6227 84.621L22.4153 84.5251L22.2084 84.4279L22.0018 84.3293L21.7956 84.2293L21.5897 84.1279L21.3844 84.0252L21.1794 83.9211L20.9748 83.8157L20.7708 83.7088L20.5671 83.6006L20.364 83.4911L20.1613 83.3801L19.9591 83.2678L19.7574 83.1541L19.5562 83.0391L19.3555 82.9227L19.1554 82.8049L18.9558 82.6858L18.7568 82.5653L18.5583 82.4435L18.3605 82.3203L18.1632 82.1957L17.9665 82.0698L17.7704 81.9426L17.575 81.814L17.3802 81.684L17.186 81.5528L16.9925 81.4201L16.7997 81.2862L16.6075 81.1509L16.416 81.0142L16.2253 80.8763L16.0352 80.737L15.8459 80.5964L15.6573 80.4544L15.4695 80.3112L15.2824 80.1666L15.0961 80.0207L14.9105 79.8736L14.7258 79.7251L14.5419 79.5753L14.3588 79.4242L14.1765 79.2719L13.995 79.1182L13.8144 78.9633L13.6346 78.8071L13.4557 78.6496L13.2777 78.4908L13.1006 78.3308L12.9244 78.1696L12.7491 78.007L12.5747 77.8433L12.4013 77.6783L12.2288 77.512L12.0572 77.3445L11.8866 77.1758L11.717 77.0059L11.5484 76.8347L11.3808 76.6624L11.2142 76.4888L11.0486 76.314L10.884 76.1381L10.7205 75.961L10.558 75.7826L10.3966 75.6032L10.2362 75.4225L10.077 75.2407L9.9188 75.0577L9.76173 74.8736L9.60576 74.6884L9.45091 74.502L9.29719 74.3145L9.14461 74.1259L8.99319 73.9361L8.84292 73.7453L8.69382 73.5534L8.5459 73.3603L8.39916 73.1662L8.25363 72.9711L8.1093 72.7748L7.96619 72.5776L7.8243 72.3792L7.68365 72.1798L7.54424 71.9794L7.40609 71.778L7.26919 71.5756L7.13357 71.3721L6.99923 71.1677L6.86618 70.9622L6.73442 70.7558L6.60398 70.5484L6.47484 70.3401L6.34703 70.1308L6.22056 69.9205L6.09542 69.7094L5.97163 69.4973L5.8492 69.2842L5.72813 69.0703L5.60843 68.8555L5.49012 68.6398L5.3732 68.4232L5.25767 68.2058L5.14354 67.9874L5.03083 67.7683L4.91954 67.5483L4.80967 67.3275L4.70124 67.1059L4.59425 66.8834L4.48871 66.6602L4.38462 66.4362L4.282 66.2114L4.18085 65.9858L4.08117 65.7595L3.98298 65.5324L3.88627 65.3046L3.79107 65.0761L3.69736 64.8469L3.60517 64.617L3.51449 64.3864L3.42533 64.1551L3.33771 63.9232L3.25161 63.6906L3.16705 63.4573L3.08404 63.2234L3.00258 62.9889L2.92268 62.7538L2.84434 62.5181L2.76757 62.2818L2.69236 62.0449L2.61874 61.8075L2.5467 61.5695L2.47625 61.331L2.40739 61.092L2.34012 60.8524L2.27446 60.6123L2.21041 60.3718L2.14796 60.1307L2.08714 59.8892L2.02793 59.6473L1.97034 59.4049L1.91438 59.162L1.86005 58.9188L1.80736 58.6751L1.75631 58.4311L1.7069 58.1866L1.65913 57.9418L1.61301 57.6967L1.56855 57.4512L1.52574 57.2053L1.48458 56.9592L1.44509 56.7127L1.40726 56.466L1.3711 56.2189L1.33661 55.9716L1.30379 55.7241L1.27264 55.4763L1.24316 55.2282L1.21537 54.98L1.18925 54.7315L1.16482 54.4829L1.14206 54.234L1.121 53.985L1.10162 53.7359L1.08392 53.4866L1.06792 53.2372L1.0536 52.9876L1.04098 52.738L1.03004 52.4883L1.0208 52.2384L1.01325 51.9886L1.0074 51.7386L1.00324 51.4887L1.00077 51.2387L1 50.9887L1.00092 50.7387L1.00354 50.4887L1.00785 50.2388L1.01386 49.9888L1.02155 49.739L1.03094 49.4892L1.04203 49.2395L1.0548 48.9898L1.06927 48.7403L1.08542 48.4909L1.10327 48.2416L1.1228 47.9925L1.14402 47.7435L1.16692 47.4947L1.1915 47.246L1.21777 46.9976L1.24571 46.7494L1.27534 46.5013L1.30663 46.2535L1.3396 46.006L1.37425 45.7587L1.41056 45.5117L1.44853 45.265L1.48817 45.0186L1.52947 44.7724L1.57243 44.5266L1.61704 44.2811L1.66331 44.036L1.71122 43.7912L1.76078 43.5468L1.81198 43.3028L1.86481 43.0592L1.91929 42.816L1.97539 42.5732L2.03312 42.3308L2.09247 42.0889L2.15345 41.8474L2.21603 41.6064L2.28023 41.3659L2.34603 41.1259L2.41344 40.8864L2.48244 40.6474L2.55303 40.4089L2.62522 40.171L2.69898 39.9336L2.77432 39.6968L2.85123 39.4605L2.92971 39.2249L3.00976 38.9898L3.09135 38.7554L3.1745 38.5216L3.25919 38.2884L3.34543 38.0558L3.43319 37.8239L3.52248 37.5927L3.6133 37.3622L3.70563 37.1323L3.79946 36.9031L3.8948 36.6747L3.99164 36.447L4.08996 36.22L4.18977 35.9937L4.29106 35.7682L4.39381 35.5435L4.49802 35.3196L4.60369 35.0964L4.71081 34.874L4.81937 34.6525L4.92936 34.4317L5.04078 34.2118L5.15362 33.9927L5.26787 33.7745L5.38352 33.5571L5.50057 33.3406L5.61901 33.125L5.73883 32.9103L5.86002 32.6964L5.98257 32.4835L6.10648 32.2715L6.23174 32.0604L6.35833 31.8502L6.48626 31.641L6.61551 31.4327L6.74607 31.2254L6.87794 31.0191L7.01111 30.8138L7.14557 30.6094L7.2813 30.406L7.4183 30.2037L7.55657 30.0023L7.69609 29.802L7.83685 29.6027L7.97885 29.4045L8.12207 29.2073L8.2665 29.0112L8.41215 28.8161L8.55899 28.6221L8.70701 28.4292L8.85622 28.2373L9.00659 28.0466L9.15812 27.857L9.3108 27.6684L9.46462 27.481L9.61957 27.2947L9.77563 27.1096L9.93281 26.9256L10.0911 26.7427L10.2504 26.561L10.4109 26.3805L10.5724 26.2011L10.735 26.0229L10.8986 25.8458L11.0633 25.67L11.2289 25.4953L11.3956 25.3219L11.5633 25.1496L11.7321 24.9786L11.9017 24.8088L12.0724 24.6402L12.244 24.4728L12.4166 24.3067L12.5902 24.1418L12.7646 23.9781L12.94 23.8157L13.1163 23.6545L13.2935 23.4946L13.4716 23.336L13.6506 23.1786L13.8304 23.0225L14.0111 22.8677L14.1926 22.7142L14.375 22.5619L14.5582 22.411L14.7422 22.2613L14.927 22.1129L15.1126 21.9659L15.299 21.8201L15.4861 21.6757L15.674 21.5325L15.8627 21.3907L16.0521 21.2502L16.2422 21.111L16.433 20.9732L16.6245 20.8367L16.8168 20.7015L17.0096 20.5677L17.2032 20.4351L17.3974 20.304L17.5923 20.1741L17.7878 20.0457L17.9839 19.9185L18.1807 19.7928L18.378 19.6683L18.5759 19.5453L18.7744 19.4235L18.9735 19.3032L19.1732 19.1842L19.3733 19.0665L19.574 18.9502L19.7753 18.8353L19.977 18.7218L20.1793 18.6096L20.382 18.4988L20.5852 18.3893L20.7889 18.2812L20.993 18.1745L21.1976 18.0692L21.4026 17.9652L21.608 17.8626L21.8139 17.7614L22.0201 17.6615L22.2267 17.563L22.4337 17.4659L22.6411 17.3702L22.8488 17.2758L23.0569 17.1828L23.2653 17.0911L23.4741 17.0009L23.6831 16.912L23.8925 16.8244L24.1021 16.7383L24.312 16.6535L24.5222 16.57L24.7326 16.4879L24.9433 16.4072L25.1543 16.3279L25.3654 16.2499L25.5768 16.1733L25.7884 16.098L26.0002 16.0241L26.2121 15.9515L26.4243 15.8803L26.6366 15.8104L26.849 15.7419L27.0616 15.6747L27.2743 15.6088L27.4872 15.5443L27.7001 15.4812L27.9132 15.4194L28.1264 15.3589L28.3396 15.2997L28.5529 15.2418L28.7663 15.1853L28.9798 15.1301L29.1932 15.0762L29.4067 15.0237L29.6203 14.9724L29.8338 14.9225L30.0474 14.8738L30.2609 14.8265L30.4745 14.7804L30.688 14.7357L30.9015 14.6922L31.1149 14.65L31.3283 14.6091L31.5416 14.5695L31.7549 14.5311L31.968 14.494L32.1811 14.4582L32.3941 14.4237L32.607 14.3904L32.8198 14.3583L33.0325 14.3275L33.245 14.298L33.4574 14.2696L33.6696 14.2425L33.8817 14.2167L34.0936 14.192L34.3053 14.1686L34.5169 14.1464L34.7283 14.1254L34.9394 14.1056L35.1504 14.087L35.3612 14.0696L35.5717 14.0534L35.782 14.0384L35.9921 14.0245L36.2019 14.0118L36.4115 14.0003L36.6208 13.99L36.8298 13.9808L37.0386 13.9727L37.2471 13.9658L37.4553 13.96L37.6632 13.9554L37.8708 13.9518L38.0781 13.9494L38.2851 13.9481L38.4918 13.948L38.6981 13.9489L38.9041 13.9509L39.1097 13.954L39.3151 13.9582L39.52 13.9635L39.7246 13.9698L39.9288 13.9772L40.1327 13.9856L40.3361 13.9951L40.5392 14.0057L40.7419 14.0173L40.9442 14.0299L41.1461 14.0435L41.3476 14.0582L41.5487 14.0738L41.7493 14.0905L41.9495 14.1082L42.1493 14.1269L42.3487 14.1465L42.5476 14.1671L42.7461 14.1887L42.9442 14.2113L43.1417 14.2348L43.3389 14.2593L43.5355 14.2847L43.7317 14.311L43.9274 14.3383L44.1227 14.3665L44.3174 14.3956L44.5117 14.4256L44.7055 14.4565L44.8988 14.4883L45.0916 14.521L45.2839 14.5546L45.4757 14.5891L45.6669 14.6244L45.8577 14.6605L46.048 14.6976L46.2377 14.7354L46.4269 14.7742L46.6156 14.8137L46.8038 14.8541L46.9914 14.8952L47.1785 14.9372L47.3651 14.98L47.5511 15.0236L47.7366 15.068L47.9215 15.1131L48.1059 15.159L48.2897 15.2057L48.473 15.2532L48.6557 15.3014L48.8379 15.3503L49.0195 15.4L49.2006 15.4504L49.3811 15.5016L49.561 15.5534L49.7404 15.606L49.9191 15.6592L50.0974 15.7132L50.275 15.7678L50.4521 15.8232L50.6286 15.8792L50.8045 15.9358L50.9799 15.9932L51.1547 16.0512L51.3289 16.1098L51.5025 16.1691L51.6755 16.229L51.848 16.2895L52.0199 16.3507L52.1912 16.4124L52.3619 16.4748L52.532 16.5378L52.7016 16.6013L52.8705 16.6655L53.0389 16.7302L53.2067 16.7955L53.3739 16.8614L53.5405 16.9278L53.7066 16.9948L53.872 17.0623L54.0369 17.1303L54.2012 17.1989L54.3649 17.2681L54.528 17.3377L54.6906 17.4079L54.8525 17.4785L55.0139 17.5497L55.1747 17.6214L55.3349 17.6935L55.4946 17.7662L55.6536 17.8393L55.8121 17.9129L55.97 17.9869L56.1273 18.0615L56.2841 18.1364L56.4403 18.2119L56.5959 18.2877L56.751 18.364L56.9054 18.4407L57.0593 18.5179L57.2127 18.5955L57.3655 18.6735L57.5177 18.7519L57.6694 18.8307L57.8205 18.9099L57.971 18.9895L58.121 19.0695L58.2704 19.1498L58.4193 19.2306L58.5676 19.3117L58.7154 19.3932L58.8627 19.475L59.0094 19.5572L59.1555 19.6398L59.3011 19.7227L59.4462 19.806L59.5908 19.8896L59.7348 19.9735L59.8783 20.0577L60.0213 20.1423L60.1637 20.2272L60.3056 20.3124L60.447 20.398L60.5879 20.4838L60.7283 20.5699L60.8681 20.6564L61.0075 20.7431L61.1463 20.8301L61.2847 20.9174L61.4225 21.005L61.5598 21.0929L61.6967 21.1811L61.8331 21.2695L61.9689 21.3582L62.1043 21.4471L62.2392 21.5364L62.3737 21.6258L62.5076 21.7156L62.6411 21.8056L62.7741 21.8958L62.9067 21.9863L63.0388 22.077L63.1704 22.168L63.3016 22.2592L63.4323 22.3506L63.5625 22.4423L63.6924 22.5342L63.8217 22.6263L63.9507 22.7186L64.0792 22.8112L64.2073 22.904L64.3349 22.997L64.4621 23.0902L64.5889 23.1836L64.7153 23.2773L64.8412 23.3711L64.9668 23.4651L65.0919 23.5594L65.2167 23.6538L65.341 23.7485L65.4649 23.8433L65.5884 23.9384L65.7116 24.0336L65.8343 24.1291L65.9567 24.2247L66.0787 24.3205L66.2003 24.4165L66.3216 24.5127L66.4424 24.6091L66.5629 24.7056L66.6831 24.8024L66.8028 24.8993L66.9223 24.9964L67.0413 25.0937L67.16 25.1912L67.2784 25.2889L67.3965 25.3867L67.5141 25.4847L67.6315 25.5829L67.7485 25.6813L67.8652 25.7798L67.9816 25.8786L68.0976 25.9775L68.2133 26.0766L68.3287 26.1758L68.4438 26.2753L68.5586 26.3749L68.6731 26.4747L68.7873 26.5747L68.9011 26.6748L69.0147 26.7751L69.128 26.8757L69.241 26.9763L69.3537 27.0772L69.4661 27.1783L69.5782 27.2795L69.6901 27.3809L69.8017 27.4825L69.913 27.5843L70.0241 27.6862L70.1348 27.7884L70.2453 27.8907L70.3556 27.9932L70.4656 28.0959L70.5753 28.1988L70.6848 28.3019L70.7941 28.4052L70.9031 28.5087L71.0118 28.6123L71.1203 28.7162L71.2286 28.8203L71.3366 28.9245L71.4444 29.029L71.5519 29.1336L71.6593 29.2385L71.7664 29.3436L71.8733 29.4489L71.9799 29.5544L72.0863 29.6601L72.1926 29.766L72.2986 29.8721L72.4044 29.9785L72.5099 30.085L72.6153 30.1918L72.7204 30.2988L72.8254 30.4061L72.9301 30.5136L73.0347 30.6213L73.139 30.7292L73.2431 30.8374L73.3471 30.9458L73.4508 31.0544L73.5544 31.1633L73.6577 31.2725L73.7609 31.3819L73.8639 31.4915L73.9667 31.6014L74.0692 31.7115L74.1716 31.822L74.2739 31.9326L74.3759 32.0436L74.4777 32.1548L74.5794 32.2663L74.6809 32.378L74.7822 32.49L74.8833 32.6024L74.9843 32.7149L75.085 32.8278L75.1856 32.941L75.286 33.0545L75.3862 33.1682L75.4863 33.2823L75.5861 33.3966L75.6858 33.5113L75.7853 33.6263L75.8847 33.7416L75.9838 33.8571L76.0828 33.9731L76.1816 34.0893L76.2802 34.2059L76.3786 34.3228L76.4769 34.44L76.575 34.5575L76.6729 34.6754L76.7706 34.7937L76.8682 34.9123L76.9656 35.0312L77.0627 35.1505L77.1597 35.2701L77.2566 35.3901L77.3532 35.5105L77.4496 35.6312L77.5459 35.7523L77.642 35.8737L77.7379 35.9956L77.8336 36.1178L77.9291 36.2404L78.0244 36.3634L78.1195 36.4868L78.2144 36.6106L78.3092 36.7347L78.4037 36.8593L78.498 36.9843L78.5922 37.1097L78.6861 37.2355L78.7798 37.3617L78.8733 37.4883L78.9666 37.6154L79.0597 37.7428L79.1525 37.8708L79.2452 37.9991L79.3376 38.1279L79.4298 38.2571L79.5218 38.3867L79.6136 38.5168L79.7051 38.6473L79.7964 38.7783L79.8874 38.9098L79.9783 39.0417L80.0688 39.1741L80.1592 39.3069L80.2492 39.4402L80.3391 39.574L80.4287 39.7082L80.518 39.8429L80.607 39.9781L80.6958 40.1138L80.7844 40.25L80.8726 40.3867L80.9606 40.5238L81.0483 40.6615L81.1357 40.7996L81.2229 40.9383L81.3097 41.0774L81.3963 41.2171L81.4825 41.3573L81.5685 41.4979L81.6541 41.6391L81.7395 41.7808L81.8245 41.9231L81.9092 42.0658L81.9936 42.2091L82.0776 42.3529L82.1614 42.4973L82.2448 42.6422L82.3278 42.7876L82.4105 42.9335L82.4928 43.08L82.5748 43.227L82.6564 43.3746L82.7377 43.5227L82.8186 43.6714L82.8991 43.8206L82.9792 43.9704L83.059 44.1207L83.1384 44.2716L83.2173 44.423L83.2959 44.5751L83.374 44.7276L83.4518 44.8807L83.5291 45.0344L83.606 45.1887L83.6825 45.3435L83.7585 45.4989L83.8341 45.6549L83.9092 45.8114L83.9839 45.9685L84.0582 46.1262L84.1319 46.2845L84.2052 46.4433L84.2781 46.6027L84.3504 46.7627L84.4223 46.9233L84.4936 47.0844L84.5645 47.2462L84.6349 47.4085L84.7047 47.5714L84.774 47.7349L84.8428 47.8989L84.9111 48.0636L84.9789 48.2288L85.046 48.3946L85.1127 48.561L85.1788 48.728L85.2443 48.8956L85.3092 49.0637L85.3736 49.2325L85.4374 49.4018L85.5006 49.5717L85.5632 49.7422L85.6252 49.9132L85.6866 50.0849L85.7474 50.2571L85.8075 50.4299L85.867 50.6033L85.9259 50.7773L85.9841 50.9519L86.0417 51.127L86.0987 51.3027L86.1549 51.479L86.2105 51.6558L86.2654 51.8333L86.3197 52.0113L86.3732 52.1898L86.426 52.369L86.4782 52.5487L86.5296 52.729L86.5803 52.9098L86.6302 53.0912L86.6795 53.2731L86.728 53.4557L86.7757 53.6387L86.8227 53.8223L86.8689 54.0065L86.9144 54.1912L86.959 54.3765L87.0029 54.5623L87.046 54.7487L87.0883 54.9356L87.1298 55.123L87.1705 55.3109L87.2104 55.4994L87.2494 55.6884L87.2876 55.878L87.325 56.068L87.3615 56.2586L87.3971 56.4497L87.4319 56.6413L87.4658 56.8334L87.4989 57.026L87.531 57.2191L87.5623 57.4127L87.5927 57.6068L87.6221 57.8013L87.6507 57.9964L87.6783 58.1919L87.705 58.3879L87.7308 58.5844L87.7556 58.7813L87.7795 58.9787L87.8024 59.1766L87.8244 59.3749L87.8454 59.5737L87.8654 59.7729L87.8845 59.9725L87.9025 60.1726L87.9196 60.373L87.9357 60.574L87.9507 60.7753L87.9647 60.977L87.9778 61.1792L87.9897 61.3817L88.0007 61.5846L88.0106 61.7879L88.0195 61.9917L88.0273 62.1957L88.034 62.4002L88.0397 62.605L88.0443 62.8102L88.0478 63.0157L88.0503 63.2215L88.0516 63.4277L88.0519 63.6343L88.051 63.8411L88.049 64.0483L88.046 64.2558L88.0417 64.4636L88.0364 64.6717L88.0299 64.8801L88.0223 65.0887L88.0136 65.2977L88.0037 65.5069L87.9926 65.7164L87.9804 65.9261L87.967 66.1361L87.9524 66.3463L87.9366 66.5567L87.9197 66.7674L87.9016 66.9783L87.8822 67.1894L87.8617 67.4007L87.84 67.6122L87.817 67.8238L87.7929 68.0357L87.7675 68.2477L87.7409 68.4599L87.713 68.6722L87.6839 68.8847L87.6536 69.0973L87.6221 69.31L87.5892 69.5229L87.5552 69.7358L87.5198 69.9489L87.4833 70.162L87.4454 70.3752L87.4063 70.5885L87.3659 70.8019L87.3242 71.0153L87.2812 71.2288L87.237 71.4423L87.1914 71.6558L87.1446 71.8694L87.0964 72.0829L87.047 72.2965L86.9962 72.51L86.9442 72.7235L86.8908 72.937L86.8361 73.1505L86.7801 73.3639L86.7228 73.5772L86.6641 73.7905L86.6041 74.0037L86.5428 74.2168L86.4802 74.4298L86.4162 74.6427L86.3509 74.8555L86.2842 75.0681L86.2162 75.2806L86.1469 75.493L86.0762 75.7052L86.0041 75.9172L85.9307 76.1291L85.856 76.3407L85.7799 76.5522L85.7024 76.7634L85.6236 76.9744L85.5434 77.1852L85.4619 77.3958L85.379 77.6061L85.2947 77.8161L85.2091 78.0258L85.1221 78.2353L85.0337 78.4445L84.9439 78.6533L84.8528 78.8619L84.7604 79.0701L84.6665 79.2779L84.5713 79.4855L84.4747 79.6926L84.3768 79.8994L84.2774 80.1058L84.1767 80.3118L84.0747 80.5174L83.9712 80.7225L83.8664 80.9273L83.7602 81.1316L83.6527 81.3354L83.5438 81.5388L83.4335 81.7418L83.3218 81.9442L83.2088 82.1461L83.0944 82.3476L82.9787 82.5485L82.8616 82.7489L82.7431 82.9487L82.6233 83.148L82.5021 83.3467L82.3795 83.5449L82.2556 83.7424L82.1304 83.9394L82.0037 84.1358L81.8758 84.3315L81.7465 84.5266L81.6158 84.7211L81.4839 84.9149L81.3505 85.1081L81.2159 85.3006L81.0799 85.4924L80.9425 85.6835L80.8039 85.8739L80.6639 86.0635L80.5226 86.2525L80.38 86.4407L80.236 86.6281L80.0908 86.8148L79.9442 87.0007L79.7964 87.1858L79.6472 87.3701L79.4968 87.5537L79.345 87.7364L79.192 87.9182L79.0377 88.0992L78.8821 88.2794L78.7252 88.4587L78.567 88.6371L78.4076 88.8147L78.247 88.9913L78.085 89.1671L77.9219 89.3419L77.7574 89.5158L77.5918 89.6887L77.4249 89.8607L77.2568 90.0318L77.0874 90.2019L76.9168 90.3709L76.7451 90.539L76.5721 90.7061L76.3979 90.8722L76.2225 91.0373L76.0459 91.2013L75.8682 91.3643L75.6893 91.5262L75.5092 91.6871L75.3279 91.8469L75.1455 92.0056L74.9619 92.1632L74.7772 92.3197L74.5914 92.4751L74.4044 92.6293L74.2163 92.7824L74.0271 92.9344L73.8368 93.0852L73.6454 93.2349L73.4529 93.3834L73.2593 93.5307L73.0647 93.6768L72.8689 93.8217L72.6721 93.9654L72.4743 94.1079L72.2754 94.2491L72.0755 94.3891L71.8746 94.5279L71.6726 94.6654L71.4696 94.8016L71.2657 94.9365L71.0607 95.0702L70.8547 95.2026L70.6478 95.3337L70.4399 95.4634L70.2311 95.5919L70.0213 95.719L69.8106 95.8448L69.5989 95.9692L69.3863 96.0923L69.1728 96.214L68.9584 96.3344L68.7431 96.4533L68.527 96.5709L68.31 96.6871L68.0921 96.8019L67.8733 96.9153L67.6537 97.0273L67.4333 97.1378L67.212 97.2469L66.99 97.3546L66.7671 97.4609L66.5435 97.5656L66.3191 97.669L66.0939 97.7708L65.8679 97.8712L65.6412 97.9701L65.4138 98.0675L65.1856 98.1634L64.9567 98.2579L64.7271 98.3508L64.4969 98.4422L64.2659 98.5321L64.0343 98.6204L63.802 98.7073L63.569 98.7925L63.3354 98.8763L63.1012 98.9585L62.8664 99.0391L62.631 99.1182L62.395 99.1958L62.1584 99.2717L61.9212 99.3461L61.6835 99.4189L61.4452 99.4901L61.2064 99.5597L60.9671 99.6277L60.7273 99.6942L60.487 99.759L60.2462 99.8222L60.0049 99.8838L59.7631 99.9438L59.5209 100.002L59.2783 100.059L59.0353 100.114L58.7918 100.167L58.5479 100.219L58.3037 100.27L58.059 100.318L57.8141 100.365L57.5687 100.41L57.323 100.454L57.077 100.496L56.8307 100.536L56.5841 100.575L56.3372 100.612L56.09 100.647L55.8426 100.681L55.5949 100.712L55.347 100.743L55.0988 100.771L54.8504 100.798L54.6019 100.824L54.3531 100.847L54.1042 100.869L53.8551 100.889L53.6059 100.908L53.3565 100.924L53.1071 100.94L52.8575 100.953L52.6078 100.965L52.358 100.975L52.1082 100.983L51.8583 100.99L51.6083 100.995L51.3583 100.998L51.1083 101L50.8583 101L50.6084 100.998L50.3584 100.994L50.1084 100.989L49.8586 100.982L49.6087 100.974L49.359 100.963L49.1093 100.951L48.8597 100.938L48.6102 100.922L48.3609 100.905L48.1117 100.887L47.8626 100.866L47.6137 100.844L47.365 100.82L47.1165 100.795L46.8681 100.768L46.62 100.739L46.3721 100.708L46.1244 100.676L45.877 100.642L45.6299 100.607L45.383 100.57L45.1364 100.531L44.8902 100.49L44.6442 100.448L44.3986 100.404L44.1533 100.359L43.9083 100.312L43.6638 100.263L43.4196 100.212L43.1757 100.16L42.9323 100.107L42.6893 100.051L42.4468 99.9945L42.2046 99.9359L41.9629 99.8757L41.7217 99.8139L41.481 99.7505L41.2407 99.6854L41.001 99.6188L40.7617 99.5505L40.523 99.4807L40.2848 99.4093L40.0471 99.3363L39.8101 99.2617L39.5735 99.1855L39.3376 99.1078L39.1023 99.0285L38.8675 98.9476L38.6334 98.8652L38.3999 98.7813L38.167 98.6958L37.9348 98.6087L37.7033 98.5202L37.4724 98.4301L37.2422 98.3385L37.0127 98.2454L36.784 98.1507L36.5559 98.0546L36.3285 97.957L36.1019 97.8579L35.8761 97.7573L35.651 97.6553L35.4267 97.5518L35.2031 97.4468L34.9804 97.3404L34.7584 97.2325L34.5373 97.1232L34.317 97.0124L34.0975 96.9003L33.8789 96.7867L33.6611 96.6717L33.4442 96.5553L33.2281 96.4376L33.0129 96.3184L32.7987 96.1979L32.5853 96.076L32.3728 95.9527L32.1613 95.8281L31.9507 95.7021L31.741 95.5748L31.5323 95.4462L31.3246 95.3163L31.1178 95.185L30.9119 95.0525L30.7071 94.9186L30.5033 94.7835L30.3004 94.6471L30.0986 94.5095L29.8978 94.3705L29.698 94.2304L29.4993 94.089L29.3016 93.9463L29.1049 93.8025L28.9094 93.6574L28.7148 93.5111L28.5214 93.3637L28.329 93.215L28.1378 93.0652L27.9476 92.9142L27.7586 92.7621L27.5706 92.6088L27.3838 92.4544L27.1981 92.2989L27.0136 92.1422L26.8301 91.9845L26.6479 91.8256L26.4668 91.6657L26.2868 91.5047L26.1081 91.3426L25.9305 91.1795L25.7541 91.0154L25.5788 90.8502L25.4048 90.6839L25.232 90.5167L25.0604 90.3485L24.89 90.1793L24.7208 90.0091L24.5528 89.8379L24.3861 89.6657L24.2206 89.4927L24.0563 89.3186L23.8933 89.1437L23.7316 88.9678L23.5711 88.7911L23.4118 88.6134L23.2538 88.4349L23.0971 88.2554L22.9417 88.0752L22.7876 87.894L22.6347 87.7121L22.4831 87.5293L22.3328 87.3456L22.1838 87.1612L22.0362 86.976L21.8898 86.79L21.7447 86.6032L21.6009 86.4156L21.4585 86.2274L21.3174 86.0383L21.1776 85.8485L21.0391 85.6581L20.9019 85.4669L20.7661 85.275L20.6316 85.0824L20.4985 84.8892L20.3667 84.6953L20.2362 84.5007L20.1071 84.3055L19.9793 84.1097L19.8529 83.9132L19.7278 83.7162L19.6041 83.5185L19.4817 83.3203L19.3607 83.1215L19.241 82.9221L19.1228 82.7222L19.0058 82.5217L18.8903 82.3207L18.7761 82.1192L18.6632 81.9172L18.5517 81.7147L18.4416 81.5118L18.3329 81.3083L18.2255 81.1044L18.1195 80.9L18.0149 80.6952L17.9117 80.49L17.8098 80.2844L17.7093 80.0783L17.6101 79.8719L17.5123 79.665L17.4159 79.4578L17.3209 79.2503L17.2272 79.0424L17.1349 78.8341L17.044 78.6255L16.9545 78.4166L16.8663 78.2074L16.7795 77.9979L16.694 77.7881L16.6099 77.5781L16.5272 77.3677L16.4458 77.1572L16.3658 76.9464L16.2872 76.7353L16.2099 76.524L16.134 76.3125L16.0594 76.1009L15.9862 75.889L15.9143 75.6769L15.8438 75.4647L15.7746 75.2523L15.7068 75.0398L15.6403 74.8271L15.5752 74.6143L15.5114 74.4014L15.4489 74.1884L15.3878 73.9753L15.328 73.7621L15.2695 73.5488L15.2124 73.3354L15.1565 73.122L15.102 72.9086L15.0488 72.6951L14.9969 72.4816L14.9464 72.268L14.8971 72.0545L14.8491 71.8409L14.8025 71.6274L14.7571 71.4138L14.713 71.2003L14.6702 70.9869L14.6287 70.7735L14.5884 70.5601L14.5495 70.3468L14.5118 70.1336L14.4754 69.9205L14.4402 69.7074L14.4063 69.4945L14.3737 69.2817L14.3423 69.0689L14.3121 68.8564L14.2832 68.6439L14.2555 68.4316L14.2291 68.2194L14.2039 68.0074L14.1799 67.7956L14.1571 67.584L14.1355 67.3725L14.1151 67.1612L14.096 66.9502L14.078 66.7393L14.0612 66.5287L14.0456 66.3183L14.0312 66.1081L14.0179 65.8981L14.0059 65.6884L13.995 65.479L13.9852 65.2698L13.9766 65.0609L13.9691 64.8523L13.9628 64.6439L13.9576 64.4359L13.9536 64.2281L13.9506 64.0207L13.9488 63.8136L13.9481 63.6067L13.9485 63.4002L13.95 63.1941L13.9526 62.9883L13.9562 62.7828L13.961 62.5777L13.9668 62.3729L13.9737 62.1685L13.9817 61.9645L13.9907 61.7608L14.0007 61.5576L14.0118 61.3547L14.0239 61.1522L14.0371 60.9501L14.0512 60.7484L14.0664 60.5472L14.0826 60.3463L14.0998 60.1459L14.118 59.9459L14.1372 59.7463L14.1573 59.5472L14.1785 59.3485L14.2006 59.1502L14.2236 58.9524L14.2476 58.7551L14.2726 58.5582L14.2985 58.3618L14.3253 58.1658L14.3531 57.9704L14.3817 57.7754L14.4113 57.5809L14.4418 57.3868L14.4732 57.1933L14.5055 57.0003L14.5386 56.8078L14.5727 56.6157L14.6076 56.4242L14.6433 56.2332L14.68 56.0427L14.7174 55.8527L14.7557 55.6632L14.7949 55.4743L14.8349 55.2859L14.8756 55.098L14.9172 54.9106L14.9597 54.7238L15.0029 54.5375L15.0469 54.3518L15.0916 54.1666L15.1372 53.9819L15.1835 53.7978L15.2306 53.6143L15.2784 53.4313L15.327 53.2489L15.3764 53.067L15.4264 52.8857L15.4772 52.7049L15.5287 52.5247L15.581 52.3451L15.6339 52.166L15.6875 51.9875L15.7418 51.8096L15.7968 51.6322L15.8525 51.4555L15.9089 51.2793L15.9659 51.1036L16.0236 50.9286L16.0819 50.7541L16.1409 50.5802L16.2005 50.4069L16.2607 50.2341L16.3216 50.062L16.383 49.8904L16.4451 49.7194L16.5078 49.549L16.5711 49.3792L16.6349 49.2099L16.6994 49.0413L16.7644 48.8732L16.83 48.7057L16.8962 48.5388L16.9629 48.3725L17.0301 48.2068L17.0979 48.0416L17.1663 47.877L17.2352 47.7131L17.3046 47.5497L17.3745 47.3868L17.4449 47.2246L17.5158 47.0629L17.5873 46.9019L17.6592 46.7414L17.7316 46.5815L17.8045 46.4221L17.8779 46.2634L17.9517 46.1052L18.026 45.9476L18.1007 45.7905L18.176 45.6341L18.2516 45.4782L18.3277 45.3229L18.4042 45.1681L18.4812 45.0139L18.5586 44.8603L18.6364 44.7073L18.7146 44.5548L18.7932 44.4028L18.8722 44.2515L18.9516 44.1007L19.0314 43.9504L19.1116 43.8007L19.1922 43.6516L19.2731 43.503L19.3544 43.3549L19.4361 43.2074L19.5181 43.0605L19.6005 42.914L19.6833 42.7682L19.7663 42.6228L19.8498 42.478L19.9335 42.3338L20.0176 42.19L20.1021 42.0468L20.1868 41.9041L20.2719 41.7619L20.3572 41.6203L20.4429 41.4792L20.5289 41.3386L20.6152 41.1984L20.7018 41.0589L20.7887 40.9198L20.8759 40.7812L20.9633 40.6431L21.0511 40.5055L21.1391 40.3684L21.2274 40.2318L21.316 40.0957L21.4048 39.9601L21.4939 39.825L21.5833 39.6903L21.6729 39.5561L21.7627 39.4224L21.8529 39.2892L21.9432 39.1564L22.0338 39.0241L22.1247 38.8923L22.2158 38.7609L22.3071 38.6299L22.3986 38.4994L22.4904 38.3694L22.5824 38.2398L22.6747 38.1107L22.7671 37.982L22.8598 37.8537L22.9527 37.7258L23.0458 37.5984L23.1391 37.4714L23.2327 37.3449L23.3264 37.2187L23.4204 37.093L23.5145 36.9676L23.6089 36.8427L23.7034 36.7182L23.7982 36.5941L23.8931 36.4703L23.9883 36.347L24.0836 36.2241L24.1792 36.1015L24.2749 35.9793L24.3708 35.8575L24.4669 35.7361L24.5632 35.6151L24.6597 35.4944L24.7563 35.3741L24.8532 35.2541L24.9502 35.1346L25.0474 35.0153L25.1448 34.8964L25.2424 34.7779L25.3401 34.6597L25.4381 34.5419L25.5362 34.4243L25.6345 34.3072L25.7329 34.1903L25.8316 34.0738L25.9304 33.9576L26.0294 33.8417L26.1286 33.7262L26.2279 33.6109L26.3275 33.496L26.4272 33.3814L26.5271 33.2671L26.6271 33.153L26.7274 33.0393L26.8278 32.9259L26.9284 32.8128L27.0292 32.6999L27.1301 32.5874L27.2313 32.4751L27.3326 32.3631L27.4341 32.2514L27.5358 32.1399L27.6377 32.0288L27.7397 31.9179L27.842 31.8072L27.9444 31.6969L28.047 31.5867L28.1498 31.4769L28.2528 31.3673L28.356 31.2579L28.4594 31.1488L28.563 31.0399L28.6667 30.9313L28.7707 30.8229L28.8749 30.7148L28.9792 30.6069L29.0838 30.4992L29.1886 30.3918L29.2935 30.2846L29.3987 30.1776L29.5041 30.0708L29.6097 29.9643L29.7155 29.858L29.8216 29.7519L29.9278 29.646L30.0343 29.5403L30.141 29.4348L30.2479 29.3296L30.355 29.2245L30.4624 29.1197L30.57 29.0151L30.6778 28.9106L30.7858 28.8064L30.8941 28.7024L31.0027 28.5985L31.1115 28.4949L31.2205 28.3914L31.3297 28.2882L31.4393 28.1851L31.549 28.0822L31.6591 27.9796L31.7694 27.8771L31.8799 27.7748L31.9907 27.6726L32.1018 27.5707L32.2132 27.4689L32.3248 27.3674L32.4367 27.266L32.5488 27.1648L32.6613 27.0638L32.774 26.9629L32.8871 26.8623L33.0004 26.7618L33.114 26.6615L33.2279 26.5613L33.3421 26.4614L33.4567 26.3616L33.5715 26.262L33.6866 26.1626L33.8021 26.0634L33.9178 25.9643L34.0339 25.8654L34.1503 25.7667L34.2671 25.6682L34.3841 25.5698L34.5015 25.4716L34.6193 25.3737L34.7373 25.2758L34.8557 25.1782L34.9745 25.0808L35.0936 24.9835L35.2131 24.8864L35.3329 24.7895L35.4531 24.6928L35.5737 24.5962L35.6946 24.4999L35.8159 24.4037L35.9375 24.3077L36.0596 24.2119L36.182 24.1163L36.3048 24.0209L36.428 23.9257L36.5516 23.8307L36.6756 23.7359L36.7999 23.6412L36.9247 23.5468L37.0499 23.4526L37.1755 23.3586L37.3015 23.2648L37.428 23.1712L37.5548 23.0778L37.6821 22.9846L37.8098 22.8916L37.9379 22.7989L38.0665 22.7063L38.1955 22.614L38.3249 22.5219L38.4548 22.4301L38.5851 22.3384L38.7159 22.247L38.8471 22.1558L38.9788 22.0649L39.111 21.9742L39.2436 21.8838L39.3766 21.7936L39.5102 21.7036L39.6442 21.6139L39.7787 21.5245L39.9137 21.4353L40.0491 21.3464L40.1851 21.2577L40.3215 21.1693L40.4584 21.0812L40.5958 20.9934L40.7337 20.9058L40.8722 20.8185L41.0111 20.7315L41.1505 20.6448L41.2904 20.5584L41.4308 20.4723L41.5718 20.3865L41.7133 20.3011L41.8553 20.2159L41.9978 20.131L42.1408 20.0465L42.2844 19.9623L42.4284 19.8784L42.5731 19.7949L42.7182 19.7116L42.8639 19.6288L43.0101 19.5463L43.1569 19.4641L43.3042 19.3823L43.4521 19.3009L43.6005 19.2198L43.7494 19.1391L43.899 19.0588L44.049 18.9789L44.1996 18.8993L44.3508 18.8202L44.5025 18.7414L44.6548 18.6631L44.8077 18.5851L44.9611 18.5076L45.1151 18.4305L45.2697 18.3538L45.4248 18.2776L45.5805 18.2018L45.7367 18.1264L45.8936 18.0515L46.051 17.977L46.209 17.9031L46.3675 17.8295L46.5267 17.7565L46.6864 17.6839L46.8467 17.6118L47.0076 17.5402L47.169 17.4691L47.3311 17.3985L47.4937 17.3284L47.6569 17.2588L47.8207 17.1898L47.985 17.1212L48.15 17.0532L48.3155 16.9858L48.4816 16.9189L48.6483 16.8525L48.8156 16.7868L48.9835 16.7215L49.152 16.6569L49.321 16.5928L49.4906 16.5293L49.6608 16.4664L49.8316 16.4042L50.003 16.3425L50.1749 16.2814L50.3475 16.221L50.5206 16.1611L50.6943 16.1019L50.8686 16.0434L51.0434 15.9855L51.2189 15.9283L51.3949 15.8717L51.5715 15.8158L51.7486 15.7605L51.9263 15.706L52.1046 15.6521L52.2835 15.5989L52.4629 15.5465L52.6429 15.4947L52.8235 15.4437L53.0046 15.3933L53.1863 15.3438L53.3686 15.2949L53.5514 15.2468L53.7347 15.1995L53.9186 15.1529L54.1031 15.1071L54.2881 15.062L54.4737 15.0177L54.6598 14.9743L54.8464 14.9316L55.0336 14.8897L55.2213 14.8486L55.4095 14.8084L55.5983 14.7689L55.7875 14.7303L55.9773 14.6926L56.1677 14.6557L56.3585 14.6196L56.5499 14.5844L56.7417 14.5501L56.9341 14.5166L57.1269 14.484L57.3203 14.4523L57.5142 14.4215L57.7085 14.3916L57.9033 14.3627L58.0986 14.3346L58.2944 14.3074L58.4907 14.2812L58.6874 14.2559L58.8846 14.2316L59.0822 14.2082L59.2803 14.1858L59.4788 14.1643L59.6778 14.1438L59.8772 14.1243L60.0771 14.1058L60.2774 14.0882L60.4781 14.0717L60.6792 14.0562L60.8808 14.0416L61.0827 14.0281L61.2851 14.0157L61.4878 14.0042L61.6909 13.9938L61.8945 13.9844L62.0984 13.9761L62.3026 13.9689L62.5073 13.9627L62.7123 13.9576L62.9176 13.9535L63.1233 13.9506L63.3294 13.9487L63.5357 13.9479L63.7424 13.9483L63.9495 13.9497L64.1568 13.9522L64.3645 13.9559L64.5724 13.9607L64.7807 13.9666L64.9892 13.9737L65.198 13.9819L65.4071 13.9913L65.6164 14.0018L65.826 14.0135L66.0359 14.0263L66.246 14.0403L66.4563 14.0555L66.6669 14.0719L66.8777 14.0894L67.0887 14.1082L67.2999 14.1281L67.5113 14.1493L67.7229 14.1717L67.9346 14.1953L68.1466 14.2201L68.3587 14.2461L68.5709 14.2733L68.7833 14.3018L68.9959 14.3315L69.2085 14.3625L69.4213 14.3947L69.6342 14.4282L69.8472 14.4629L70.0603 14.4989L70.2735 14.5362L70.4868 14.5747L70.7001 14.6145L70.9135 14.6556L71.127 14.6979L71.3405 14.7415L71.554 14.7865L71.7675 14.8327L71.9811 14.8802L72.1946 14.929L72.4082 14.9792L72.6217 15.0306L72.8352 15.0833L73.0487 15.1374L73.2621 15.1928L73.4755 15.2495L73.6888 15.3075L73.902 15.3668L74.1152 15.4275L74.3282 15.4895L74.5412 15.5529L74.754 15.6175L74.9667 15.6836L75.1793 15.7509L75.3917 15.8196L75.604 15.8897L75.8161 15.9611L76.0281 16.0338L76.2398 16.1079L76.4514 16.1834L76.6627 16.2602L76.8738 16.3384L77.0847 16.4179L77.2954 16.4988L77.5058 16.5811L77.716 16.6647L77.9258 16.7497L78.1355 16.836L78.3448 16.9237L78.5538 17.0128L78.7625 17.1033L78.9708 17.1951L79.1789 17.2883L79.3865 17.3828L79.5939 17.4788L79.8008 17.5761L80.0074 17.6747L80.2136 17.7748L80.4194 17.8762L80.6248 17.979L80.8297 18.0831L81.0342 18.1887L81.2383 18.2956L81.4419 18.4038L81.6451 18.5135L81.8477 18.6245L82.0499 18.7368L82.2516 18.8506L82.4527 18.9657L82.6534 19.0821L82.8535 19.1999L83.053 19.3191L83.252 19.4397L83.4505 19.5616L83.6483 19.6848L83.8456 19.8094L84.0422 19.9354L84.2383 20.0627L84.4337 20.1914L84.6285 20.3214L84.8226 20.4527L85.0161 20.5854L85.2089 20.7194L85.401 20.8548L85.5925 20.9915L85.7832 21.1295L85.9732 21.2689L86.1625 21.4095L86.351 21.5515L86.5388 21.6948L86.7259 21.8395L86.9122 21.9854L87.0977 22.1326L87.2824 22.2812L87.4663 22.431L87.6494 22.5821L87.8316 22.7345L88.013 22.8883L88.1936 23.0432L88.3733 23.1995L88.5522 23.357L88.7302 23.5159L88.9072 23.6759L89.0834 23.8372L89.2587 23.9998L89.433 24.1636L89.6064 24.3287L89.7789 24.495L89.9504 24.6626L90.1209 24.8313L90.2905 25.0013L90.459 25.1725L90.6266 25.3449L90.7932 25.5185L90.9587 25.6934L91.1233 25.8694L91.2867 26.0465L91.4492 26.2249L91.6105 26.4045L91.7708 26.5852L91.9301 26.767L92.0882 26.95L92.2452 27.1342L92.4011 27.3195L92.5559 27.5059L92.7096 27.6935L92.8621 27.8822L93.0135 28.0719L93.1637 28.2628L93.3128 28.4548L93.4606 28.6479L93.6073 28.842L93.7528 29.0372L93.8971 29.2335L94.0401 29.4308L94.182 29.6292L94.3226 29.8287L94.4619 30.0291L94.6 30.2306L94.7369 30.4331L94.8724 30.6366L95.0067 30.8411L95.1397 31.0465L95.2714 31.253L95.4018 31.4604L95.5309 31.6688L95.6586 31.8782L95.785 32.0884L95.9101 32.2997L96.0338 32.5118L96.1562 32.7249L96.2772 32.9388L96.3968 33.1537L96.5151 33.3694L96.632 33.586L96.7474 33.8035L96.8615 34.0219L96.9741 34.2411L97.0854 34.4611L97.1952 34.6819L97.3035 34.9036L97.4105 35.1261L97.5159 35.3494L97.62 35.5734L97.7225 35.7982L97.8236 36.0238L97.9232 36.2502L98.0213 36.4773L98.118 36.7051L98.2131 36.9336L98.3068 37.1629L98.3989 37.3928L98.4895 37.6235L98.5786 37.8548L98.6661 38.0868L98.7522 38.3194L98.8367 38.5527L98.9196 38.7866L99.001 39.0211L99.0808 39.2563L99.1591 39.492L99.2358 39.7283L99.3109 39.9652L99.3845 40.2027L99.4565 40.4407L99.5268 40.6792L99.5956 40.9183L99.6628 41.1579L99.7284 41.3979L99.7924 41.6385L99.8548 41.8796L99.9155 42.1211L99.9747 42.3631L100.032 42.6055L100.088 42.8484L100.142 43.0916L100.195 43.3353L100.246 43.5794L100.295 43.8238L100.343 44.0686L100.389 44.3138L100.433 44.5593L100.476 44.8052L100.517 45.0514L100.557 45.2978L100.594 45.5446L100.63 45.7917L100.665 46.039L100.698 46.2865L100.729 46.5344L100.758 46.7824L100.786 47.0307L100.812 47.2791L100.836 47.5278L100.859 47.7766L100.88 48.0256L100.899 48.2748L100.917 48.5241L100.933 48.7735L100.947 49.0231L100.96 49.2727L100.97 49.5225L100.98 49.7723L100.987 50.0221L100.993 50.2721L100.997 50.522L100.999 50.772L101 50.9998Z" stroke="white" stroke-width="2"/>
</svg>
